<svg class="ui-homes-icon ui-homes-icon--da-mlb-low-price-products font-color--HOME-DA-NEW-MLB-LOWPRICEPRODUCTS" width="100%" height="100%" viewBox="0 0 100 100" fill="none" xmlns="http://www.w3.org/2000/svg"><g clip-path="url(#clip0_996_409)"><circle cx="53" cy="52.5" r="45.5403" fill="#EEEEEE"></circle><ellipse cx="53.4683" cy="34.9039" rx="25.1025" ry="25.4559" fill="white"></ellipse><path d="M70.5495 35.0232C70.5495 44.4681 63.0063 52.0776 53.7591 52.0776C44.5119 52.0776 36.9688 44.4681 36.9688 35.0232C36.9688 25.5782 44.5119 17.9688 53.7591 17.9688C63.0063 17.9688 70.5495 25.5782 70.5495 35.0232Z" fill="#FFE600" stroke="white" stroke-width="3.9375"></path><path d="M62.6504 30.1194C62.1033 28.9294 60.8693 28.197 58.7089 28.197C56.446 28.197 54.7646 29.4214 54.7646 31.2161C54.7646 33.4405 56.136 33.8911 58.2189 34.4219C58.3502 34.4564 58.4813 34.4907 58.6116 34.5254L58.871 34.5952C60.5473 35.0536 62.6504 35.4975 62.8355 37.2826C63.0206 39.0677 61.5464 40.658 58.5585 40.6515C56.446 40.6468 54.6613 39.6929 54.3413 38.1866" stroke="#333333" stroke-width="1.5"></path><path d="M44.3239 40.8757V34.9597V28.506H49.3094C49.3094 28.506 52.0791 29.0438 52.0791 31.7329C52.0791 34.4219 49.3094 34.9597 49.3094 34.9597H44.3239" stroke="#333333" stroke-width="1.5"></path><path d="M48.2015 34.9597L52.0791 40.8757" stroke="#333333" stroke-width="1.5"></path><path d="M58.7728 26.0487V28.2457" stroke="#333333" stroke-width="1.5"></path><path d="M58.7728 40.8031V43.0001" stroke="#333333" stroke-width="1.5"></path><ellipse cx="53.4683" cy="34.9033" rx="18.7591" ry="19.0232" stroke="#333333" stroke-width="1.96875"></ellipse><mask id="path-10-inside-1_996_409" fill="white"><rect x="32.3635" y="84.8816" width="50.205" height="10.0013" rx="1.3125"></rect></mask><rect x="32.3635" y="84.8816" width="50.205" height="10.0013" rx="1.3125" fill="white" stroke="white" stroke-width="5.25" mask="url(#path-10-inside-1_996_409)"></rect><rect x="32.3635" y="84.8816" width="50.205" height="10.0013" rx="1.3125" stroke="#333333" stroke-width="1.96875"></rect><mask id="path-12-inside-2_996_409" fill="white"><rect x="24.3681" y="74.8812" width="50.205" height="10.0013" rx="1.3125"></rect></mask><rect x="24.3681" y="74.8812" width="50.205" height="10.0013" rx="1.3125" fill="white" stroke="white" stroke-width="5.25" mask="url(#path-12-inside-2_996_409)"></rect><rect x="24.3681" y="74.8812" width="50.205" height="10.0013" rx="1.3125" stroke="#333333" stroke-width="1.96875"></rect><mask id="path-14-inside-3_996_409" fill="white"><rect x="29.6983" y="64.8796" width="50.205" height="10.0013" rx="1.3125"></rect></mask><rect x="29.6983" y="64.8796" width="50.205" height="10.0013" rx="1.3125" fill="white" stroke="white" stroke-width="5.25" mask="url(#path-14-inside-3_996_409)"></rect><rect x="29.6983" y="64.8796" width="50.205" height="10.0013" rx="1.3125" stroke="#333333" stroke-width="1.96875"></rect><line x1="30.9142" y1="77.2166" x2="30.9142" y2="82.5468" stroke="#333333" stroke-width="1.96875"></line><line x1="38.4621" y1="77.2175" x2="38.4621" y2="82.5478" stroke="#333333" stroke-width="1.96875"></line><line x1="46.0099" y1="77.2175" x2="46.0099" y2="82.5478" stroke="#333333" stroke-width="1.96875"></line><line x1="53.5579" y1="77.2175" x2="53.5579" y2="82.5478" stroke="#333333" stroke-width="1.96875"></line><line x1="61.1058" y1="77.2175" x2="61.1058" y2="82.5478" stroke="#333333" stroke-width="1.96875"></line><line x1="68.6537" y1="77.2175" x2="68.6537" y2="82.5478" stroke="#333333" stroke-width="1.96875"></line><line x1="38.9095" y1="87.238" x2="38.9095" y2="92.5683" stroke="#333333" stroke-width="1.96875"></line><line x1="46.4574" y1="87.2393" x2="46.4574" y2="92.5695" stroke="#333333" stroke-width="1.96875"></line><line x1="54.0052" y1="87.2393" x2="54.0052" y2="92.5695" stroke="#333333" stroke-width="1.96875"></line><line x1="61.5532" y1="87.2393" x2="61.5532" y2="92.5695" stroke="#333333" stroke-width="1.96875"></line><line x1="69.1011" y1="87.2393" x2="69.1011" y2="92.5695" stroke="#333333" stroke-width="1.96875"></line><line x1="76.649" y1="87.2393" x2="76.649" y2="92.5695" stroke="#333333" stroke-width="1.96875"></line><line x1="36.2444" y1="67.1995" x2="36.2444" y2="72.5297" stroke="#333333" stroke-width="1.96875"></line><line x1="43.7923" y1="67.2006" x2="43.7923" y2="72.5308" stroke="#333333" stroke-width="1.96875"></line><line x1="51.3401" y1="67.2006" x2="51.3401" y2="72.5308" stroke="#333333" stroke-width="1.96875"></line><line x1="58.8881" y1="67.2006" x2="58.8881" y2="72.5308" stroke="#333333" stroke-width="1.96875"></line><line x1="66.436" y1="67.2006" x2="66.436" y2="72.5308" stroke="#333333" stroke-width="1.96875"></line><line x1="73.9839" y1="67.2006" x2="73.9839" y2="72.5308" stroke="#333333" stroke-width="1.96875"></line><path d="M34.9215 17.7493C39.5121 12.6484 46.1216 9.448 53.4682 9.448C67.3319 9.448 78.5707 20.845 78.5707 34.9039C78.5707 40.3575 76.8795 45.4106 74 49.5532M31.6294 22.3431C29.552 26.0493 28.3656 30.3361 28.3656 34.9039C28.3656 48.9628 39.6044 60.3598 53.4682 60.3598C56.692 60.3598 59.7739 59.7435 62.6055 58.6208M67.4375 56.0572C68.5169 55.3227 69.537 54.5055 70.489 53.6145" stroke="#333333" stroke-width="1.96875"></path><circle cx="74" cy="22.3431" r="8.53125" fill="white" stroke="white" stroke-width="3.9375"></circle><circle cx="74" cy="22.3431" r="10.5" stroke="#333333" stroke-width="1.96875"></circle><path d="M73.9997 16.6279V27.1279M73.9997 27.1279L70.0628 23.3098M73.9997 27.1279L77.9378 23.3098" stroke="#333333" stroke-width="1.96875"></path></g><defs><clipPath id="clip0_996_409"><rect width="105" height="105" fill="white" transform="translate(0.5)"></rect></clipPath></defs></svg>